<?xml version="1.0" standalone="no"?>
<!DOCTYPE svg PUBLIC "-//W3C//DTD SVG 1.1//EN" "http://www.w3.org/Graphics/SVG/1.1/DTD/svg11.dtd" >
<svg xmlns="http://www.w3.org/2000/svg">
<metadata>Generated by IcoMoon</metadata>
<defs>
<font id="icomoon" horiz-adv-x="512">
<font-face units-per-em="512" ascent="480" descent="-32" />
<missing-glyph horiz-adv-x="512" />
<glyph unicode="&#x20;" d="" horiz-adv-x="256" />
<glyph unicode="&#xe800;" d="M256 480c-141.376 0-256-114.624-256-256s114.624-256 256-256 256 114.624 256 256-114.624 256-256 256zM288 80c0-8.832-7.168-16-16-16h-32c-8.832 0-16 7.168-16 16v32c0 8.832 7.168 16 16 16h32c8.832 0 16-7.168 16-16v-32zM288 197.504v-21.504c0-8.832-7.168-16-16-16h-32c-8.832 0-16 7.168-16 16v48c0 17.696 4 32 24 32h24c8.832 0 16 7.168 16 16v32c0 8.832-7.168 16-16 16h-32c-8.832 0-16-7.168-16-16 0-4.448-3.008-16-16-16h-32c-12 0-16.128 7.2-14.688 15.936 7.616 45.376 47.2 80.064 94.688 80.064 52.928 0 96-43.072 96-96 0-41.728-26.752-77.312-64-90.496z" />
<glyph unicode="&#xe801;" d="M68.262 104.524v204.786h37.237c9.42 0 19.898 7.134 23.994 15.598 6.519 13.652 14.165 26.724 22.834 39.046 5.393 7.68 2.594 13.619-6.826 13.619h-111.37c-18.875 0-34.131-15.257-34.131-34.131v-341.311c0-18.875 15.257-34.131 34.131-34.131h477.835c18.875 0 34.131 15.256 34.131 34.131v222.774c0 9.454-5.939 12.287-13.277 6.349l-46.998-38.192c-7.304-5.939-7.986-13.857-7.986-23.312v-65.224h-409.572zM188.608 154.595c30.582 75.123 91.233 152.464 186.834 120.585v-46.896c0-21.195 12.799-27.68 28.192-14.404l136.729 117.649c7.747 6.622 7.679 17.339-0.068 23.994l-136.729 117.649c-15.325 13.209-28.124 6.724-28.124-14.471v-46.999c-113.076 0-204.786-91.676-204.786-204.786 0-17.953 2.423-35.36 6.826-51.913 2.423-9.147 7.577-9.147 11.126-0.409z" horiz-adv-x="546" />
<glyph unicode="&#xe802;" d="M0 448v-160c0-17.696 14.336-32 32-32h160c17.664 0 32 14.304 32 32v160c0 17.696-14.336 32-32 32h-160c-17.664 0-32-14.304-32-32zM32 192c-17.664 0-32-14.304-32-32v-160c0-17.696 14.336-32 32-32h160c17.664 0 32 14.304 32 32v160c0 17.696-14.336 32-32 32h-160zM320 192c-17.664 0-32-14.304-32-32v-160c0-17.696 14.336-32 32-32h160c17.664 0 32 14.304 32 32v160c0 17.696-14.336 32-32 32h-160zM320 480c-17.664 0-32-14.304-32-32v-160c0-17.696 14.336-32 32-32h160c17.664 0 32 14.304 32 32v160c0 17.696-14.336 32-32 32h-160z" />
<glyph unicode="&#xe803;" d="M57.733 422.363c-76.851-76.849-77.040-202.742-0.188-279.592 65.112-65.113 165.523-75.034 241.39-29.777l135.586-131.839c18.662-18.109 48.103-17.44 65.916 1.5 17.818 18.94 17.353 48.743-1.309 66.854l-133.524 129.404c46.816 76.095 37.311 177.676-28.464 243.45-76.853 76.851-202.559 76.851-279.408 0zM114.1 365.996c46.356 46.356 120.314 46.356 166.67 0s46.356-120.314 0-166.67c-46.356-46.358-120.314-46.358-166.67 0-46.356 46.356-46.356 120.314 0 166.67z" horiz-adv-x="514" />
<glyph unicode="&#xe804;" d="M56.781 464.64h397.43c31.57 0 56.781-25.16 56.781-56.279 0-31.125-25.211-55.952-56.781-55.952h-397.43c-31.247 0-56.781 24.827-56.781 55.952 0 31.119 25.534 56.279 56.781 56.279v0zM57.785 277.581h397.435c31.242 0 56.781-24.832 56.781-55.946 0-31.125-25.538-56.294-56.781-56.294h-397.435c-31.58 0-56.776 25.17-56.776 56.294 0 31.12 25.195 55.946 56.776 55.946v0zM57.114 90.85h397.44c31.57 0 56.781-25.159 56.781-56.269 0-30.791-25.211-55.972-56.781-55.972h-397.44c-31.58 0-56.776 25.18-56.776 55.972 0 31.109 25.195 56.269 56.776 56.269v0z" />
<glyph unicode="&#xe805;" d="M191.282 75.182l-160.678-101.794c-16.896-10.712-30.605-4.942-30.605 12.943v452.447c0 17.853 19.734 41.222 50.212 41.222h285.712c31.115 0 46.641-17.566 46.641-41.222v-452.447c0-17.885-13.709-23.623-30.605-12.943l-160.678 101.794z" horiz-adv-x="383" />
<glyph unicode="&#xe806;" d="M78.695 472.371c-9.677 10.189-25.395 10.189-35.021 0l-34.969-36.711c-9.728-10.087-9.728-26.471 0-36.608l168.704-174.336-170.137-175.821c-9.677-10.137-9.677-26.573 0-36.659l35.021-36.71c9.626-10.087 25.293-10.087 35.021 0l222.669 230.809c9.625 10.137 9.625 26.522 0 36.659l-221.286 229.376z" horiz-adv-x="307" />
<glyph unicode="&#xe807;" d="M519.373 304.239c10.138 9.677 10.138 25.395 0 35.021l-36.762 34.969c-10.035 9.677-26.471 9.677-36.608 0l-174.336-168.704-175.821 170.087c-10.138 9.677-26.624 9.677-36.659 0l-36.761-35.021c-10.035-9.625-10.035-25.293 0-35.021l230.861-222.72c10.138-9.625 26.521-9.625 36.659 0l229.427 221.389z" horiz-adv-x="538" />
<glyph unicode="&#xe808;" d="M480 480h-448c-17.696 0-32-14.304-32-32v-448c0-17.696 14.304-32 32-32h448c17.696 0 32 14.304 32 32v448c0 17.696-14.304 32-32 32zM192 112c0-8.832-7.168-16-16-16h-32c-8.832 0-16 7.168-16 16v32c0 8.832 7.168 16 16 16h32c8.832 0 16-7.168 16-16v-32zM192 208c0-8.832-7.168-16-16-16h-32c-8.832 0-16 7.168-16 16v32c0 8.832 7.168 16 16 16h32c8.832 0 16-7.168 16-16v-32zM192 304c0-8.832-7.168-16-16-16h-32c-8.832 0-16 7.168-16 16v32c0 8.832 7.168 16 16 16h32c8.832 0 16-7.168 16-16v-32zM384 112c0-8.832-7.168-16-16-16h-128c-8.832 0-16 7.168-16 16v32c0 8.832 7.168 16 16 16h128c8.832 0 16-7.168 16-16v-32zM384 208c0-8.832-7.168-16-16-16h-128c-8.832 0-16 7.168-16 16v32c0 8.832 7.168 16 16 16h128c8.832 0 16-7.168 16-16v-32zM384 304c0-8.832-7.168-16-16-16h-128c-8.832 0-16 7.168-16 16v32c0 8.832 7.168 16 16 16h128c8.832 0 16-7.168 16-16v-32z" />
<glyph unicode="&#xe809;" d="M416 480h-320c-53.12 0-96-42.88-96-96v-320c0-53.12 42.88-96 96-96h320c17.696 0 32 14.304 32 32v320c0 17.696-14.304 32-32 32h-48c-8.832 0-16-7.168-16-16v-169.312c0-8.864-5.568-11.488-12.448-5.952l-35.552 38.080-35.552-36.768c-6.88-5.536-12.448-2.88-12.448 5.952v152c0 17.696-14.304 32-32 32h-128c-17.6 0-32 14.4-32 32s14.4 32 32 32h336c8.832 0 16 7.168 16 16v16c0 17.696-14.304 32-32 32z" horiz-adv-x="448" />
<glyph unicode="&#xe810;" d="M588.8 275.2h-408.781l119.859 123.904c9.728 10.138 9.728 26.522 0 36.659l-34.969 36.711c-9.625 10.087-25.293 10.087-35.021 0l-222.669-230.758c-9.626-10.24-9.626-26.624 0-36.711l221.286-229.325c9.677-10.189 25.395-10.189 34.97 0l35.021 36.659c9.677 10.087 9.677 26.522 0 36.608l-119.859 123.853h410.163c14.131 0 25.6 11.469 25.6 25.6v51.2c0 14.131-11.469 25.6-25.6 25.6z" horiz-adv-x="615" />
<glyph unicode="&#xe811;" d="M512 192.496v64l-76.496 31.872c-2.128 6-4.368 11.808-7.12 17.504l30.896 76.88-45.28 45.248-76.192-31.376c-5.808 2.816-11.744 5.184-17.872 7.376l-32.432 76h-64l-31.632-75.744c-6.368-2.256-12.496-4.624-18.56-7.504l-76.064 30.56-45.248-45.248 31.008-75.376c-3.008-6.192-5.44-12.496-7.76-19.008l-75.248-32.176v-64l75.312-31.376c2.32-6.496 4.816-12.816 7.808-19.008l-30.432-75.872 45.248-45.248 75.568 31.12c6.064-2.88 12.256-5.184 18.624-7.376l32.384-75.744h64l31.664 76.128c6.080 2.256 12.080 4.624 17.808 7.376l76.752-30.752 45.248 45.248-31.52 76.368c2.688 5.728 4.896 11.568 7.008 17.504l76.528 32.624zM255.504 128c-52.992 0-96 43.008-96 96s43.008 96 96 96c52.992 0 96-43.008 96-96s-43.008-96-96-96z" />
<glyph unicode="&#xe812;" d="M480 480h-448c-17.696 0-32-14.304-32-32v-448c0-17.696 14.304-32 32-32h448c17.696 0 32 14.304 32 32v448c0 17.696-14.304 32-32 32zM160 96h-64v224h64v-224zM128 352c-17.696 0-32 14.304-32 32s14.304 32 32 32 32-14.304 32-32-14.304-32-32-32zM416 96h-64v96c0 30.048-8 64-40 64-36 0-56-32-56-64v-96h-63.488c0 0 1.504 224 0.48 224h63.008v-48c9.76 21.472 30.016 41.984 59.328 45.984 62.112 8.48 100.672-24.352 100.672-93.152v-128.832z" />
<glyph unicode="&#xe813;" d="M480 480h-448c-17.6 0-32-14.4-32-32v-448c0-17.6 14.4-32 32-32h448c17.6 0 32 14.4 32 32v448c0 17.6-14.4 32-32 32zM383.776 288.256c0.128-2.752 0.256-5.568 0.256-8.384 0-85.408-64.928-183.872-183.84-183.872-36.48 0-70.368 10.752-98.944 29.024 5.056-0.608 10.432-0.896 15.648-0.896 30.272 0 58.56 10.368 80.704 27.68-28.288 0.512-51.264 19.2-59.488 44.896 3.968-0.768 9.792-1.184 13.952-1.184 5.888 0 15.168 0.8 20.608 2.272-29.568 5.952-44.672 32.064-44.672 63.328v0.896c0-4.896 11.52-7.776 22.112-8.128-17.344 11.616-35.904 31.36-35.904 53.792 0 11.84 3.168 22.944 8.736 32.48 31.872-39.104 79.488-64.832 133.216-67.52-1.12 4.736-1.696 9.664-1.696 14.752 0 35.68 28.928 64.608 64.672 64.608 18.56 0 35.328-7.84 47.168-20.416 14.688 2.88 28.544 8.256 41.024 15.68-4.832-15.104-15.104-27.744-28.416-35.744 13.056 1.568 25.536 5.056 37.088 10.176-8.672-12.928-19.52-24.32-32.224-33.44z" />
<glyph unicode="&#xe814;" d="M480 480h-448c-17.6 0-32-14.4-32-32v-448c0-17.6 14.4-32 32-32h448c17.6 0 32 14.4 32 32v448c0 17.6-14.4 32-32 32zM352 320h-32c-27.2 0-32 0-32-64h64v-64h-64v-128h-64v128h-64v64h64c0 48.992 0 128 96 128h32v-64z" />
<glyph unicode="&#xe815;" d="M480 480h-448c-17.696 0-32-14.336-32-32v-448c0-17.696 14.304-32 32-32h448c17.696 0 32 14.304 32 32v448c0 17.664-14.304 32-32 32zM384 52.928c-27.328-9.632-35.712-13.152-49.184-16.288-13.504-3.072-30.144-4.64-45.76-4.64-17.824 0-34.56 2.208-48.256 6.656-13.696 4.48-19.808 10.464-29.472 18.656-9.632 8.256-12.256 14.080-16 23.36-3.744 9.248-3.328 25.76-3.328 43.328v132h-64v56.992c32 4.896 35.104 10.496 46.016 19.68 10.88 9.12 18.976 21.536 25.568 34.368 6.624 12.832 13.152 29.152 15.68 48.96h72.736v-97.056l64 1.056v-64h-64v-64c0-22.272-4.864-82.656 6.656-92 10.688-8.672 17.408-5.472 28.544-5.472 19.712 0 28.8 6.336 60.8 18.976v-60.576z" />
<glyph unicode="&#xe816;" d="M480 480h-448c-17.696 0-32-14.304-32-32v-448c0-17.696 14.304-32 32-32h448c17.696 0 32 14.304 32 32v448c0 17.696-14.304 32-32 32zM77.184 277.088c0 5.28 3.648 6.656 8.16 3.040l57.216-45.792c4.544-3.648 4.544-9.472 0-13.088l-57.216-45.888c-4.512-3.552-8.16-2.24-8.16 3.072v98.656zM434.848 107.616c0-9.824-10.080-17.888-22.336-17.888h-312.96c-12.288 0-22.368 8.064-22.368 17.888v10.624l97.12 77.6c4.512 3.584 11.808 3.584 16.32 0l57.216-45.856c4.48-3.616 11.808-3.616 16.352 0l57.216 45.856c4.512 3.584 11.808 3.584 16.32 0l97.12-77.6v-10.624zM434.848 178.432c0-5.312-3.68-6.624-8.16-3.072l-57.216 45.856c-4.544 3.616-4.544 9.44 0 13.088l57.216 45.792c4.48 3.616 8.16 2.24 8.16-3.040v-98.624zM434.848 338.72l-171.616-138.048c-4.448-3.616-11.744-3.616-16.256 0l-169.792 136.448v3.2c0 9.856 10.080 17.92 22.368 17.92h312.96c12.256 0 22.336-8.064 22.336-17.92v-1.6z" />
<glyph unicode="&#xe817;" d="M256 480c-141.376 0-256-114.656-256-256s114.624-256 256-256c141.376 0 256 114.624 256 256 0 141.344-114.624 256-256 256zM343.072 180.512c12-12 12-31.488 0-43.488-12.032-12-31.488-12-43.488 0l-43.52 43.488-43.488-43.488c-12-12-31.488-12-43.488 0s-12 31.488 0 43.488l43.488 43.488-43.488 43.52c-12 12-12 31.456 0 43.488 12 12 31.488 12 43.488 0l43.488-43.488 43.488 43.488c12 12 31.456 12 43.488 0 12-12.032 12-31.488 0-43.488l-43.488-43.52 43.52-43.488z" />
<glyph unicode="&#xe818;" d="M217.28 174.56c-1.92 1.312-3.936 2.688-5.984 4.128-6.048 1.888-12.48 2.816-19.008 2.88h-0.832c-30.176 0-56.672-18.24-56.672-39.136 0-22.688 22.688-40.448 51.616-40.448 38.176 0 57.536 13.184 57.536 39.136 0 2.432-0.288 4.992-0.896 7.552-2.528 10.080-11.776 16.384-25.76 25.888zM195.904 253.76c0.032 0 0.032 0 0 0 7.232 0 13.312 2.848 18.048 8.256 7.392 8.416 10.656 22.24 8.704 36.96-3.424 26.24-22.208 48.096-41.792 48.672h-0.768c-6.944 0-13.12-2.848-17.824-8.224-7.296-8.32-10.4-21.504-8.48-36.16 3.424-26.24 22.592-48.896 41.792-49.472h0.32zM480 480h-448c-17.696 0-32-14.304-32-32v-448c0-17.696 14.304-32 32-32h448c17.696 0 32 14.304 32 32v448c0 17.696-14.304 32-32 32zM222.848 78.816c-11.264-3.264-23.456-4.928-36.256-4.928-14.208 0-27.936 1.696-40.672 4.864-24.704 6.24-42.976 18.048-51.52 33.312-3.648 6.56-5.536 13.632-5.536 20.864 0 7.488 1.792 15.072 5.344 22.56 13.536 28.864 49.216 48.32 88.736 48.32 0.416 0 0.768 0 1.152 0-3.2 5.632-4.768 11.456-4.768 17.664 0 3.072 0.416 6.176 1.216 9.344-41.472 0.96-72.512 31.296-72.512 71.328 0 28.288 22.624 55.808 54.912 66.944 9.696 3.296 19.52 5.024 29.248 5.024h88.704c3.008 0 5.632-1.952 6.624-4.832 0.864-2.88-0.128-6.016-2.56-7.808l-19.904-14.304c-1.12-0.864-2.56-1.312-4.064-1.312h-7.104c9.184-10.976 14.56-26.656 14.56-44.256 0-19.424-9.824-37.792-27.68-51.776-13.856-10.784-14.4-13.696-14.4-19.872 0.192-3.36 9.792-14.368 20.384-21.888 24.736-17.472 33.984-34.688 33.984-63.328 0-29.856-22.752-55.68-57.888-65.92zM423.136 230.912c0-3.84-3.2-6.944-7.008-6.944h-50.368v-50.4c0-3.872-3.136-7.008-6.944-7.008h-14.368c-3.872 0-7.008 3.136-7.008 7.008v50.368h-50.368c-3.872 0-6.944 3.136-6.944 6.976v14.368c0 3.872 3.072 6.976 6.944 6.976h50.368v50.368c0 3.84 3.136 6.976 7.008 6.976h14.368c3.808 0 6.944-3.168 6.944-6.976v-50.4h50.368c3.808 0 7.008-3.104 7.008-6.976v-14.336z" />
<glyph unicode="&#xe819;" d="M512 448c0 17.696-14.304 32-32 32h-448c-17.696 0-32-14.304-32-32v-448c0-17.696 14.304-32 32-32h448c17.696 0 32 14.304 32 32v448zM281.952 297.728v-72.352l1.312-0.672c2.368-0.832 7.072-1.024 10.912 4.928 16.416 23.2 35.328 50.848 38.016 65.312 0.096 0.608 0.256 1.152 0.512 1.696 3.36 7.040 12.512 11.968 16.192 13.088 0.512 0.192 1.568 0.48 2.752 0.48l52.448-0.064c1.152-0.16 2.304-0.416 3.392-0.768 2.976-1.088 5.024-3.040 6.432-5.248 2.72-4.416 2.304-9.344 2.592-11.296 0.128-0.672 0.128-1.344 0-2.016-4.64-28.96-37.952-61.44-51.936-82.496-3.616-4.96-3.648-8.672-0.32-12.704l46.464-58.144c5.344-7.68 5.088-16.064-0.672-22.048-3.68-3.904-9.088-6.080-14.816-6.752l-5.344-0.16h-49.376l0.864 0.064c-6.464-0.864-11.52 1.824-15.328 5.632l-3.136 3.776-26.688 33.728c-1.472 1.824-2.656 2.848-3.488 3.424l-0.928 0.544-0.384-0.896-6.080-27.136-1.024-5.632c-1.728-5.824-5.44-11.712-13.12-13.184l-4.672-0.32h-30.848c-54.848 0-104.384 78.112-139.040 175.424l-0.256 0.832c-1.184 5.856-1.76 12.352 1.088 17.568 3.296 6.016 9.568 7.968 16.16 8.16l47.392-0.32c2.944-0.032 5.504-1.952 6.368-4.736 10.656-35.040 23.776-56.448 39.776-80.832l0.448-0.768c1.728-3.616 5.344-2.592 7.264 0.288l1.12 3.328v55.008c0 8.064-3.68 9.216-12.64 10.496-4.064 0.608-6.688 4.736-5.408 8.672 4.288 13.664 18.432 20.64 38.048 20.64l18.080 0.416c14.592 0 27.872-6.272 27.872-24.96z" />
<glyph unicode="&#xe820;" d="M157.792 450.784c4.672 0 9.376 0 14.048 0 18.688 0 37.408 0 56.096 0 9.344 0 18.688 0 28.064 0 18.688 0 37.408 0 56.128 0 9.312 0 18.656 0 28.032 0 4.672 0 9.312 0 14.016 0 14.304 0 14.304 0 14.016-14.016-0.064-3.424 0-10.656 0-14.080 0-4.64 0-9.312 0-14.016 0-9.376 0-18.72 0-28.032 0-4.704 0-9.344 0-14.080 9.408 0 18.72 0 28.032 0 9.408 0 18.72 0 28.064 0 4.704 0 9.376 0 14.080 0 4.672 0 9.28 0 14.016 0 3.36 0 10.656 0 14.016 0 14.016-0.064 14.016-0.064 14.016-14.016 0-9.344 0-18.72 0-28.032-1.248-12.864 0-14.016-14.016-14.048-1.952 0-13.344 1.568-14.016 0-1.344-2.976 0-10.688 0-14.016 0-4.672 0.224-9.344 0-14.016s0-9.344 0-14.016c0-4.704 0-9.344 0-14.048 0-9.312 0-18.656 0-28.032 0-4.672 0-9.344 0-14.016 0-18.72 0-37.44 0-56.128 0-9.344 0-18.72 0-28.064 0-9.376 0-18.688 0-28.032 0-9.376 0-18.72 0-28.096 0-4.672 0-9.376 0-14.016 0-9.376 0-18.752 0-28.032 0-3.424 0.096-10.656 0-14.080-0.416-14.016-0.416-14.016-14.016-14.016-18.72 0-37.472 0-56.192 0-9.28 0-18.656 0-28.032 0-4.672 0-9.344 0-14.016 0-9.376 0-18.72 0-28.032 0-9.408 0-18.72 0-28.096 0-4.672 0-9.344 0-14.016 0-9.376 0-18.688 0-28.064 0-4.672 0-9.344 0-14.016 0-9.344 0-18.688 0-28.032 0s-18.72 0-28.064 0c-18.688 0-37.408 0-56.096 0-9.344 0-18.688 0-28.064 0-4.672 0-9.344 0-14.048 0-13.632 0-13.632 0-14.016 14.016-0.064 3.2 0.576 10.88 0 14.080-0.8 4.256 0 9.632 0 14.016 0 4.672 0 9.376 0 14.016 0 9.344 0 18.72 0 28 0 4.704 0 9.376 0 14.080 0 9.344 0 18.656 0 28.032 0 9.344 0 18.72 0 28.064 0 9.312 0 18.688 0 28.032 0 4.704 0 9.376 0 14.016 0 9.344 0 18.72 0 28.064 0 4.672 0 9.344 0 14.016 0 9.344 0 18.72 0 28.064 0 9.312 0 18.656 0 28.032 0 3.264 1.376 11.168 0 14.016-0.896 1.92-11.808-0.064-14.016 0-14.016 0.608-14.016 0.608-14.016 14.144 0 9.312 0 18.656 0 28.032 0 14.432 0 14.432 14.048 14.016 3.168-0.096 10.816-0.576 14.016 0 4.256 0.832 9.664 0 14.016 0 4.672 0 9.376 0 14.048 0 18.688 0 37.408 0 56.096 0 0 9.344 0 18.72 0 28.096 0 4.64 0 9.344 0 14.016 0 9.344 0 18.72 0 28.064-0.768 14.016-0.768 14.016 14.016 14.016zM284.064 394.656c-4.672 0-9.344 0-14.016 0-9.376 0-18.688 0-28.064 0-4.672 0-9.344 0-14.016 0-9.344 0-18.688 0-28.032 0 0-9.344 0-18.72 0-28.096 9.344 0 18.688 0 28.032 0 4.672 0 9.344 0 14.016 0 9.376 0 18.688 0 28.064 0 4.672 0 9.376 0 14.016 0 9.376 0 18.688 0 28.096 0 0 9.344 0 18.72 0 28.096-9.408 0-18.72 0-28.096 0zM171.84 282.432c0-9.344 0-18.72 0-28.064 0-9.312 0-18.656 0-28.032 0-4.672 0-9.344 0-14.016 0-9.376 0-18.72 0-28.096 0-18.72 0-37.376 0-56.096 0-4.672 0-9.376 0-14.016 0-9.344 0-18.72 0-28.096 9.344 0 18.688 0 28.064 0s18.688 0 28.032 0c0 9.376 0 18.752 0 28.096 0 9.376 0 18.72 0 28.032 0 4.704 0 9.376 0 14.048 0 9.312 0 18.688 0 28.032 0 18.72 0 37.44 0 56.128 0 4.704 0 9.344 0 14.016 0 9.344 0 18.72 0 28.064-9.344 0-18.688 0-28.032 0s-18.72 0-28.064 0zM284.064 282.432c0-9.344 0-18.72 0-28.064 0-9.312 0-18.656 0-28.032 0-4.672 0-9.344 0-14.016 0-9.376 0-18.72 0-28.096 0-18.72 0-37.376 0-56.096 0-4.672 0-9.376 0-14.016 0-9.344 0-18.72 0-28.096 9.376 0 18.688 0 28.096 0 9.312 0 18.656 0 28.032 0 0 9.376 0 18.752 0 28.096 0 9.376 0 18.72 0 28.032 0 4.704 0 9.376 0 14.048 0 9.312 0 18.688 0 28.032 0 18.72 0 37.44 0 56.128 0 4.704 0 9.344 0 14.016 0 9.344 0 18.72 0 28.064-9.376 0-18.72 0-28.032 0-9.408 0-18.72 0-28.096 0z" />
<glyph unicode="&#xe821;" d="M147.456-17.152q-14.336 13.824-14.336 33.792t14.080 34.048 34.048 14.080 34.048-14.080 14.080-34.048-14.080-34.048-34.048-14.080-33.792 14.336zM339.456-17.152q-14.336 13.824-14.336 33.792t14.080 34.048 34.048 14.080 34.048-14.080 14.080-34.048-14.080-34.048-34.048-14.080-33.792 14.336zM453.12 352.512q13.312 0 22.784-9.472t9.472-22.272q-1.024-2.048-2.048-6.912t-2.048-7.936q-6.144-23.040-22.016-87.040t-24.064-98.304q-3.072-10.752-12.032-17.408t-18.688-6.656h-241.152q-22.016 1.024-30.72 24.064-9.216 36.352-28.16 116.224t-28.16 115.712h-87.040q-6.656 0-11.264 4.608t-4.608 11.776v31.744q0 7.168 4.608 11.52t11.264 4.352h112.128q1.024 0 4.096-0.512 18.944-3.072 26.112-23.040 2.56-12.288 9.728-40.448h311.808zM411.136 288.512h-252.928q3.072-12.8 8.192-37.888 14.848-61.952 22.016-90.112h190.976z" />
<glyph unicode="&#xe822;" d="M149.504-17.152q-14.336 13.824-14.336 33.792t14.080 34.048 34.048 14.080 34.048-14.080 14.080-34.048-14.080-34.048-34.048-14.080-33.792 14.336zM341.504-17.152q-14.336 13.824-14.336 33.792t14.080 34.048 34.048 14.080 34.048-14.080 14.080-34.048-14.080-34.048-34.048-14.080-33.792 14.336zM455.168 352.512q13.312 0 22.784-9.472t9.472-22.272q-1.024-2.048-2.048-6.912t-2.048-7.936q-6.144-23.040-22.016-87.040t-24.064-98.304q-3.072-10.752-12.032-17.408t-18.688-6.656h-241.152q-22.016 1.024-30.72 24.064-9.216 36.352-28.16 116.224t-28.16 115.712h-87.040q-6.656 0-11.264 4.608t-4.608 11.776v31.744q0 7.168 4.608 11.52t11.264 4.352h112.128q1.024 0 4.096-0.512 18.944-3.072 26.112-23.040 2.56-12.288 9.728-40.448h311.808zM397.312 227.072l15.872 61.44h-252.928q2.048-8.704 15.36-61.44h221.696z" />
</font>
</defs>
</svg>
